PathFileType	4	(X/Y/Z)	 2.8Hzlow_3min.trc
DataRate	CameraRate	NumFrames	NumMarkers	Units	OrigDataRate	OrigDataStartFrame	OrigNumFrames
200	200	9	43	m	200	751	1000
Frame#	Time	C7			LSH			RSH			MAN			RASI			LASI			HIPR			HIPL			RPSI			LPSI			COX			RTHI1			RTHI2			RTHI3			RTHI4			RLKN			RMKN			RSHA1			RSHA2			RSHA3			RSHA4			RLMAL			RMMAL			RHEEL			RMET5			RMET1			RTOE			LTHI1			LTHI2			LTHI3			LTHI4			LLKN			LMKN			LSHA1			LSHA2			LSHA3			LSHA4			LLMAL			LMMAL			LHEEL			LMET5			LMET1			LTOE			
		X1	Y1	Z1	X2	Y2	Z2	X3	Y3	Z3	X4	Y4	Z4	X5	Y5	Z5	X6	Y6	Z6	X7	Y7	Z7	X8	Y8	Z8	X9	Y9	Z9	X10	Y10	Z10	X11	Y11	Z11	X12	Y12	Z12	X13	Y13	Z13	X14	Y14	Z14	X15	Y15	Z15	X16	Y16	Z16	X17	Y17	Z17	X18	Y18	Z18	X19	Y19	Z19	X20	Y20	Z20	X21	Y21	Z21	X22	Y22	Z22	X23	Y23	Z23	X24	Y24	Z24	X25	Y25	Z25	X26	Y26	Z26	X27	Y27	Z27	X28	Y28	Z28	X29	Y29	Z29	X30	Y30	Z30	X31	Y31	Z31	X32	Y32	Z32	X33	Y33	Z33	X34	Y34	Z34	X35	Y35	Z35	X36	Y36	Z36	X37	Y37	Z37	X38	Y38	Z38	X39	Y39	Z39	X40	Y40	Z40	X41	Y41	Z41	X42	Y42	Z42	X43	Y43	Z43	
751	3.7550	-0.317327	1.508003	-0.575141	-0.245455	1.481243	-0.772688	-0.232794	1.471607	-0.376208	-0.171204	1.432600	-0.577072	-0.148095	0.992132	-0.451892	-0.154563	0.997446	-0.709632	-0.233436	1.042156	-0.409664	-0.245291	1.038096	-0.738548	-0.334676	1.033503	-0.522466	-0.336803	1.030298	-0.613095	-0.338694	1.030297	-0.569362	-0.245254	0.752678	-0.386486	-0.232433	0.693592	-0.386822	-0.169007	0.703627	-0.378325	-0.173398	0.764913	-0.377082	-0.218672	0.477755	-0.405837	-0.188165	0.458428	-0.520740	-0.308130	0.310316	-0.407806	-0.329657	0.276141	-0.418343	-0.259818	0.285040	-0.405963	-0.272919	0.248930	-0.418816	-0.380881	0.114613	-0.451697	-0.332055	0.112503	-0.523811	-0.424412	0.107221	-0.509450	-0.300299	0.036726	-0.396094	-0.234949	0.043933	-0.451858	-0.209357	0.035344	-0.445486	-0.248331	0.751685	-0.761422	-0.234075	0.691927	-0.762959	-0.170820	0.700750	-0.774881	-0.177683	0.760390	-0.775620	-0.197296	0.495505	-0.756026	-0.180002	0.479755	-0.641269	-0.324192	0.295021	-0.759781	-0.342649	0.260414	-0.752761	-0.287231	0.235026	-0.750440	-0.274604	0.273780	-0.762881	-0.387521	0.129616	-0.742751	-0.358888	0.129522	-0.661835	-0.443604	0.123039	-0.689180	-0.304264	0.031694	-0.769703	-0.251599	0.041823	-0.694919	-0.227893	0.033397	-0.700783	
752	3.7600	-0.318420	1.511876	-0.574994	-0.246892	1.486097	-0.772332	-0.233599	1.476851	-0.376440	-0.172174	1.437285	-0.577120	-0.146896	0.997486	-0.452313	-0.153706	1.002567	-0.709731	-0.231632	1.047307	-0.409819	-0.244425	1.042819	-0.738438	-0.333204	1.037994	-0.522069	-0.335597	1.034538	-0.612921	-0.337476	1.034496	-0.569102	-0.245522	0.757282	-0.386462	-0.233085	0.698121	-0.386739	-0.169642	0.707736	-0.378042	-0.173617	0.769042	-0.376819	-0.220997	0.482238	-0.405582	-0.189292	0.462386	-0.520345	-0.309416	0.314000	-0.407706	-0.330603	0.279661	-0.418213	-0.260898	0.289063	-0.405088	-0.273727	0.252812	-0.417980	-0.379951	0.117026	-0.450983	-0.330698	0.115231	-0.522815	-0.422972	0.110269	-0.508925	-0.299862	0.037166	-0.396287	-0.234747	0.044094	-0.451607	-0.209248	0.035367	-0.445297	-0.248537	0.756285	-0.761608	-0.234690	0.696438	-0.763278	-0.171412	0.704859	-0.775378	-0.177876	0.764521	-0.776001	-0.199374	0.499867	-0.756899	-0.182103	0.484021	-0.641853	-0.324920	0.298203	-0.760606	-0.343003	0.263397	-0.753680	-0.287333	0.238497	-0.751892	-0.275145	0.277463	-0.764250	-0.386265	0.131794	-0.744048	-0.357429	0.131848	-0.663373	-0.441842	0.125864	-0.690445	-0.303744	0.031922	-0.769907	-0.251453	0.042014	-0.695350	-0.227868	0.033476	-0.701050	
753	3.7650	-0.319546	1.515681	-0.574837	-0.248440	1.490923	-0.771950	-0.234429	1.482056	-0.376691	-0.173203	1.441973	-0.577177	-0.145750	1.002827	-0.452694	-0.152821	1.007733	-0.709664	-0.229857	1.052495	-0.410008	-0.243422	1.047661	-0.738263	-0.331744	1.042521	-0.521712	-0.334387	1.038871	-0.612815	-0.336259	1.038768	-0.568879	-0.245799	0.761867	-0.386418	-0.233753	0.702642	-0.386645	-0.170296	0.711823	-0.377750	-0.173837	0.773149	-0.376552	-0.223238	0.486672	-0.405344	-0.190431	0.466348	-0.519991	-0.310651	0.317676	-0.407598	-0.331463	0.283164	-0.418034	-0.261996	0.293073	-0.404263	-0.274452	0.256673	-0.417131	-0.378980	0.119431	-0.450170	-0.329289	0.117970	-0.521765	-0.421500	0.113304	-0.508348	-0.299417	0.037622	-0.396467	-0.234541	0.044284	-0.451343	-0.209148	0.035399	-0.445091	-0.248769	0.760892	-0.761786	-0.235351	0.700951	-0.763586	-0.172054	0.708954	-0.775887	-0.178100	0.768648	-0.776397	-0.201462	0.504216	-0.757731	-0.184035	0.488295	-0.642448	-0.325673	0.301395	-0.761280	-0.343361	0.266374	-0.754464	-0.287437	0.241984	-0.753309	-0.275725	0.281166	-0.765573	-0.384952	0.133963	-0.745249	-0.355828	0.134155	-0.664825	-0.439966	0.128714	-0.691520	-0.303219	0.032220	-0.770052	-0.251268	0.042216	-0.695761	-0.227828	0.033559	-0.701341	
754	3.7700	-0.320694	1.519392	-0.574676	-0.250055	1.495674	-0.771538	-0.235285	1.487190	-0.376961	-0.174281	1.446644	-0.577246	-0.144666	1.008108	-0.453036	-0.151924	1.012887	-0.709427	-0.228143	1.057707	-0.410234	-0.242275	1.052617	-0.738024	-0.330316	1.047057	-0.521405	-0.333173	1.043259	-0.612764	-0.335057	1.043091	-0.568700	-0.246056	0.766407	-0.386356	-0.234407	0.707109	-0.386536	-0.170940	0.715857	-0.377453	-0.174039	0.777196	-0.376286	-0.225341	0.491016	-0.405126	-0.191588	0.470293	-0.519691	-0.311886	0.321234	-0.407534	-0.332210	0.286644	-0.417800	-0.262985	0.297010	-0.403495	-0.275049	0.260492	-0.416282	-0.377943	0.121793	-0.449282	-0.327830	0.120697	-0.520670	-0.419992	0.116345	-0.507742	-0.298958	0.038118	-0.396647	-0.234314	0.044507	-0.451058	-0.209055	0.035438	-0.444866	-0.249020	0.765476	-0.761956	-0.236034	0.705442	-0.763878	-0.172727	0.713015	-0.776388	-0.178348	0.772745	-0.776794	-0.203527	0.508510	-0.758498	-0.185753	0.492541	-0.643043	-0.326428	0.304566	-0.761801	-0.343701	0.269323	-0.755098	-0.287523	0.245459	-0.754658	-0.276316	0.284856	-0.766809	-0.383575	0.136117	-0.746343	-0.354064	0.136428	-0.666184	-0.437988	0.131560	-0.692400	-0.302683	0.032598	-0.770137	-0.251040	0.042438	-0.696141	-0.227772	0.033648	-0.701656	
755	3.7750	-0.321842	1.522996	-0.574526	-0.251716	1.500309	-0.771105	-0.236170	1.492197	-0.377249	-0.175401	1.451267	-0.577329	-0.143656	1.013268	-0.453338	-0.151023	1.017993	-0.709072	-0.226500	1.062912	-0.410506	-0.241000	1.057676	-0.737732	-0.328935	1.051578	-0.521139	-0.331959	1.047671	-0.612757	-0.333890	1.047443	-0.568576	-0.246270	0.770841	-0.386281	-0.235023	0.711474	-0.386409	-0.171554	0.719799	-0.377164	-0.174203	0.781150	-0.376030	-0.227284	0.495213	-0.404928	-0.192762	0.474200	-0.519448	-0.313016	0.324705	-0.407441	-0.332871	0.290056	-0.417471	-0.263838	0.300861	-0.402776	-0.275504	0.264228	-0.415453	-0.376860	0.124102	-0.448334	-0.326342	0.123388	-0.519529	-0.418465	0.119346	-0.507085	-0.298498	0.038650	-0.396823	-0.234062	0.044756	-0.450748	-0.208968	0.035496	-0.444616	-0.249287	0.770011	-0.762117	-0.236741	0.709882	-0.764155	-0.173423	0.717025	-0.776874	-0.178610	0.776789	-0.777181	-0.205524	0.512717	-0.759186	-0.187244	0.496722	-0.643628	-0.327154	0.307681	-0.762170	-0.344001	0.272227	-0.755583	-0.287576	0.248882	-0.755900	-0.276895	0.288502	-0.767929	-0.382135	0.138261	-0.747333	-0.352173	0.138659	-0.667437	-0.435915	0.134386	-0.693086	-0.302138	0.033067	-0.770162	-0.250763	0.042671	-0.696490	-0.227691	0.033751	-0.702011	
756	3.7800	-0.322970	1.526476	-0.574383	-0.253384	1.504800	-0.770646	-0.237081	1.497037	-0.377554	-0.176533	1.455815	-0.577422	-0.142720	1.018270	-0.453605	-0.150146	1.022972	-0.708613	-0.224948	1.068077	-0.410832	-0.239613	1.062804	-0.737395	-0.327610	1.056066	-0.520924	-0.330777	1.052094	-0.612824	-0.332761	1.051808	-0.568505	-0.246446	0.775135	-0.386208	-0.235602	0.715697	-0.386276	-0.172118	0.723600	-0.376883	-0.174327	0.784978	-0.375789	-0.229048	0.499245	-0.404755	-0.193937	0.478038	-0.519271	-0.314041	0.328122	-0.407328	-0.333367	0.293345	-0.417104	-0.264530	0.304558	-0.402082	-0.275800	0.267864	-0.414646	-0.375727	0.126380	-0.447404	-0.324839	0.126014	-0.518350	-0.416930	0.122299	-0.506386	-0.298032	0.039237	-0.396998	-0.233786	0.045041	-0.450403	-0.208897	0.035575	-0.444327	-0.249569	0.774471	-0.762265	-0.237455	0.714251	-0.764404	-0.174135	0.720965	-0.777339	-0.178888	0.780765	-0.777549	-0.207439	0.516814	-0.759782	-0.188515	0.500795	-0.644194	-0.327815	0.310715	-0.762393	-0.344234	0.275056	-0.755927	-0.287572	0.252244	-0.757015	-0.277432	0.292072	-0.768915	-0.380638	0.140391	-0.748220	-0.350170	0.140851	-0.668575	-0.433769	0.137179	-0.693595	-0.301588	0.033632	-0.770136	-0.250435	0.042926	-0.696822	-0.227583	0.033876	-0.702419	
757	3.7850	-0.324067	1.529822	-0.574247	-0.255047	1.509117	-0.770182	-0.238013	1.501671	-0.377869	-0.177667	1.460251	-0.577526	-0.141864	1.023075	-0.453840	-0.149307	1.027783	-0.708094	-0.223485	1.073166	-0.411210	-0.238136	1.067949	-0.737027	-0.326352	1.060499	-0.520763	-0.329632	1.056483	-0.612954	-0.331682	1.056167	-0.568493	-0.246576	0.779262	-0.386146	-0.236124	0.719752	-0.386151	-0.172621	0.727247	-0.376622	-0.174405	0.788653	-0.375569	-0.230622	0.503083	-0.404608	-0.195097	0.481760	-0.519149	-0.314878	0.331394	-0.407188	-0.333688	0.296489	-0.416709	-0.265007	0.308148	-0.401427	-0.275933	0.271376	-0.413880	-0.374576	0.128602	-0.446479	-0.323341	0.128567	-0.517154	-0.415401	0.125140	-0.505613	-0.297562	0.039897	-0.397160	-0.233487	0.045372	-0.449986	-0.208848	0.035684	-0.443959	-0.249869	0.778832	-0.762397	-0.238179	0.718524	-0.764634	-0.174855	0.724823	-0.777776	-0.179189	0.784653	-0.777894	-0.209240	0.520771	-0.760281	-0.189576	0.504730	-0.644732	-0.328383	0.313653	-0.762492	-0.344376	0.277796	-0.756138	-0.287494	0.255525	-0.757989	-0.277896	0.295542	-0.769759	-0.379088	0.142506	-0.749002	-0.348086	0.142982	-0.669593	-0.431571	0.139933	-0.693961	-0.301021	0.034290	-0.770067	-0.250060	0.043216	-0.697162	-0.227434	0.034035	-0.702910	
758	3.7900	-0.325112	1.533026	-0.574126	-0.256685	1.513217	-0.769730	-0.238956	1.506076	-0.378187	-0.178781	1.464551	-0.577637	-0.141082	1.027656	-0.454053	-0.148513	1.032394	-0.707544	-0.222122	1.078150	-0.411637	-0.236605	1.073061	-0.736661	-0.325172	1.064850	-0.520646	-0.328504	1.060800	-0.613113	-0.330659	1.060488	-0.568540	-0.246681	0.783203	-0.386111	-0.236577	0.723604	-0.386041	-0.173055	0.730729	-0.376392	-0.174457	0.792159	-0.375379	-0.231996	0.506721	-0.404487	-0.196209	0.485323	-0.519082	-0.315514	0.334506	-0.407003	-0.333843	0.299487	-0.416290	-0.265253	0.311566	-0.400799	-0.275905	0.274718	-0.413165	-0.373406	0.130759	-0.445541	-0.321872	0.131020	-0.515959	-0.413886	0.127910	-0.504827	-0.297082	0.040659	-0.397309	-0.233187	0.045746	-0.449467	-0.208832	0.035835	-0.443472	-0.250183	0.783073	-0.762506	-0.238899	0.722682	-0.764833	-0.175581	0.728583	-0.778182	-0.179508	0.788437	-0.778212	-0.210910	0.524567	-0.760675	-0.190457	0.508488	-0.645224	-0.328832	0.316469	-0.762488	-0.344406	0.280439	-0.756233	-0.287323	0.258697	-0.758811	-0.278249	0.298896	-0.770450	-0.377491	0.144596	-0.749666	-0.345961	0.145047	-0.670484	-0.429355	0.142606	-0.694201	-0.300439	0.035045	-0.769965	-0.249630	0.043553	-0.697562	-0.227233	0.034239	-0.703520	
759	3.7950	-0.326085	1.536085	-0.574024	-0.258272	1.517083	-0.769292	-0.239901	1.510224	-0.378502	-0.179844	1.468674	-0.577746	-0.140368	1.031974	-0.454250	-0.147744	1.036779	-0.706979	-0.220849	1.082979	-0.412108	-0.235051	1.078071	-0.736311	-0.324079	1.069092	-0.520567	-0.327426	1.065022	-0.613320	-0.329697	1.064752	-0.568635	-0.246739	0.786892	-0.386100	-0.236964	0.727230	-0.385956	-0.173425	0.734022	-0.376197	-0.174477	0.795471	-0.375226	-0.233171	0.510126	-0.404397	-0.197254	0.488693	-0.519062	-0.315772	0.337555	-0.406650	-0.333844	0.302283	-0.415845	-0.265324	0.314801	-0.400208	-0.275730	0.277869	-0.412509	-0.372243	0.132857	-0.444588	-0.320468	0.133362	-0.514793	-0.412429	0.130550	-0.504002	-0.296604	0.041518	-0.397415	-0.232910	0.046169	-0.448815	-0.208861	0.036049	-0.442810	-0.250503	0.787167	-0.762584	-0.239612	0.726700	-0.764994	-0.176304	0.732231	-0.778567	-0.179840	0.792097	-0.778504	-0.212437	0.528195	-0.760970	-0.191205	0.512043	-0.645653	-0.329142	0.319151	-0.762401	-0.344308	0.282962	-0.756236	-0.287038	0.261746	-0.759478	-0.278476	0.302104	-0.770999	-0.375871	0.146663	-0.750219	-0.343848	0.147060	-0.671234	-0.427156	0.145197	-0.694341	-0.299848	0.035901	-0.769847	-0.249142	0.043951	-0.698055	-0.226975	0.034505	-0.704271	
